<?xml version="1.0" encoding="UTF-8"?>
<svg version="1.1" xmlns="http://www.w3.org/2000/svg" width="1126" height="363">
<path d="M0 0 C0.76454498 -0.00686325 1.52908997 -0.0137265 2.31680298 -0.02079773 C4.84623747 -0.0391117 7.3750544 -0.03522174 9.90454102 -0.02954102 C11.66187238 -0.03410078 13.41920196 -0.03940573 15.17652893 -0.04542542 C18.86108643 -0.05436565 22.54542729 -0.05192326 26.22998047 -0.04199219 C30.95256749 -0.03050393 35.67440666 -0.05070682 40.39689541 -0.07990932 C44.02660373 -0.09825336 47.65613228 -0.09798244 51.28587532 -0.0922718 C53.02700919 -0.09211835 54.76815506 -0.09818225 56.50924492 -0.11056328 C58.94414067 -0.12543725 61.37764779 -0.11482383 63.8125 -0.09765625 C64.89192116 -0.1121582 64.89192116 -0.1121582 65.9931488 -0.12695312 C69.27680732 -0.07845808 71.14808533 0.16595519 73.82078552 2.13696289 C75.51488448 4.46441628 76.54587532 6.4789789 77.53198242 9.17919922 C77.8892894 10.14025574 78.24659637 11.10131226 78.61473083 12.0914917 C78.99267288 13.14209778 79.37061493 14.19270386 79.76000977 15.27514648 C80.17134659 16.38980286 80.58268341 17.50445923 81.00648499 18.65289307 C82.14035145 21.73013773 83.26457721 24.81071492 84.38540268 27.8927269 C85.5911005 31.19962011 86.81009455 34.50159709 88.02880859 37.80371094 C88.53438934 39.17393077 89.03995868 40.54415481 89.54551697 41.91438293 C89.79945662 42.60257425 90.05339626 43.29076557 90.31503105 43.99981117 C91.10067557 46.13059592 91.88487023 48.26190943 92.66871643 50.39335632 C97.88172637 64.56230047 103.20456446 78.68913762 108.54144287 92.8117981 C111.28582509 100.07428 114.02479571 107.33880374 116.76391602 114.60327148 C117.17694599 115.69851544 117.17694599 115.69851544 117.59832001 116.81588554 C124.07939756 134.003119 130.52617575 151.20318 136.97094727 168.40405273 C145.01285735 189.8676172 153.07297397 211.32412781 161.16434383 232.76909828 C163.03929238 237.73905301 164.91175835 242.70993766 166.78271484 247.68139648 C167.04522695 248.37888189 167.30773905 249.0763673 167.57820606 249.79498863 C168.63958007 252.6150598 169.70094754 255.43513339 170.76207161 258.25529861 C174.15009131 267.25881481 177.5506549 276.25745625 180.9646225 285.25116634 C183.35007094 291.53688107 185.72658361 297.82593003 188.09694672 304.11734867 C189.50838358 307.86233455 190.92423871 311.60550923 192.35113525 315.34463501 C193.6738376 318.81085276 194.98483648 322.28126564 196.28689384 325.75528908 C196.99484005 327.63466209 197.71539863 329.5092689 198.43629456 331.38371277 C198.85402634 332.50481949 199.27175812 333.62592621 199.70214844 334.78100586 C200.25403084 336.23754578 200.25403084 336.23754578 200.81706238 337.72351074 C201.5433343 340.70079685 201.35707874 342.49299161 200.47094727 345.40405273 C198.3959287 347.4790713 193.91157063 346.57192777 191.05151367 346.58105469 C190.1686116 346.58762589 189.28570953 346.59419708 188.37605286 346.60096741 C185.44153774 346.62074933 182.50707388 346.63237312 179.57250977 346.64233398 C178.0735573 346.64844728 178.0735573 346.64844728 176.54432297 346.65468407 C171.25652012 346.67556455 165.9687434 346.68985834 160.6809082 346.69921875 C155.20719228 346.71029442 149.73388164 346.74470206 144.26030922 346.78439045 C140.06193259 346.81048071 135.86365367 346.81890376 131.66520309 346.82250023 C129.6469079 346.82738496 127.6286176 346.83905215 125.61040115 346.85753822 C122.78965994 346.88177124 119.96998238 346.88099395 117.14916992 346.87402344 C115.89132942 346.89323853 115.89132942 346.89323853 114.608078 346.9128418 C108.98973816 346.86206823 108.98973816 346.86206823 106.55311584 344.71089172 C105.36308101 342.17411621 104.36043386 339.68616802 103.47802734 337.0246582 C102.93780693 335.41311356 102.93780693 335.41311356 102.38667297 333.76901245 C102.0084288 332.61474762 101.63018463 331.46048279 101.24047852 330.27124023 C100.84519455 329.08305695 100.44991058 327.89487366 100.04264832 326.67068481 C99.20961175 324.16183941 98.37943953 321.6522677 97.55419922 319.14086914 C96.49545351 315.9192295 95.42750074 312.70073981 94.35623646 309.48324394 C93.33490378 306.41376015 92.31894174 303.34250471 91.30297852 300.27124023 C90.91866165 299.11292694 90.53434479 297.95461365 90.13838196 296.76119995 C89.61234627 295.15911179 89.61234627 295.15911179 89.07568359 293.5246582 C88.76496414 292.58186005 88.45424469 291.63906189 88.1341095 290.66769409 C87.47094727 288.40405273 87.47094727 288.40405273 87.47094727 286.40405273 C73.29365758 286.38071246 59.11637087 286.36313444 44.93906593 286.35224056 C38.35658733 286.34701311 31.77412159 286.33991794 25.19165039 286.32861328 C18.8439458 286.31777953 12.49625362 286.31177486 6.1485405 286.30917549 C3.721946 286.30732213 1.29535221 286.3037032 -1.13123703 286.29832268 C-4.51955403 286.29110581 -7.90781918 286.29006207 -11.29614258 286.29052734 C-12.30818253 286.28693207 -13.32022247 286.28333679 -14.3629303 286.27963257 C-15.28282242 286.28100723 -16.20271454 286.2823819 -17.15048218 286.28379822 C-18.35342202 286.28241553 -18.35342202 286.28241553 -19.58066368 286.28100491 C-21.60996243 286.28202824 -21.60996243 286.28202824 -23.52905273 287.40405273 C-24.50872247 289.68181464 -24.50872247 289.68181464 -25.36083984 292.50292969 C-25.71137924 293.59108475 -26.06191864 294.67923981 -26.42308044 295.80036926 C-26.79707474 296.98571762 -27.17106903 298.17106598 -27.55639648 299.39233398 C-27.94598038 300.60221481 -28.33556427 301.81209564 -28.73695374 303.05863953 C-30.19911379 307.60007284 -31.64791375 312.14568473 -33.09552002 316.69177246 C-34.5115394 321.13636589 -35.93903597 325.57716901 -37.36889648 330.01733398 C-37.74086655 331.19660965 -38.11283661 332.37588531 -38.49607849 333.59089661 C-38.84977005 334.68850815 -39.20346161 335.78611969 -39.56787109 336.91699219 C-39.87494492 337.88216263 -40.18201874 338.84733307 -40.49839783 339.8417511 C-42.37662602 344.51119685 -42.37662602 344.51119685 -44.52905273 346.40405273 C-47.5379677 346.7953811 -50.18144301 346.93031008 -53.19140625 346.88989258 C-54.07620667 346.89368927 -54.96100708 346.89748596 -55.87261963 346.90139771 C-58.80142502 346.90881589 -61.72924156 346.88740473 -64.65795898 346.86499023 C-66.68912133 346.86260667 -68.72028591 346.8617003 -70.75144958 346.86221313 C-75.00940744 346.85908306 -79.26702906 346.8425004 -83.52490234 346.81567383 C-88.9918424 346.78167215 -94.45841311 346.77404572 -99.92544651 346.77556419 C-104.11951749 346.77502125 -108.31350719 346.76406656 -112.50755119 346.74956131 C-114.52384768 346.74318262 -116.5401534 346.73925192 -118.55645943 346.7377739 C-121.36983165 346.73345346 -124.18280645 346.71598036 -126.99609375 346.69458008 C-127.83510727 346.69548645 -128.67412079 346.69639282 -129.53855896 346.69732666 C-135.30009711 346.63300835 -135.30009711 346.63300835 -137.52905273 344.40405273 C-137.30333897 337.29995499 -134.80990083 331.1874476 -132.25170898 324.62280273 C-131.81420822 323.47849289 -131.37670746 322.33418304 -130.9259491 321.15519714 C-129.9824003 318.6903534 -129.03580381 316.22696478 -128.08361816 313.76547241 C-126.56568372 309.84096504 -125.06036832 305.91169433 -123.55737305 301.98144531 C-122.01860966 297.95885317 -120.47947051 293.93641269 -118.93637085 289.91548157 C-114.8483623 279.26125101 -110.82036231 268.58533272 -106.82662964 257.89541626 C-105.01663207 253.05091639 -103.2025374 248.20795147 -101.38842773 243.36499023 C-101.01000229 242.35461197 -100.63157684 241.3442337 -100.24168396 240.30323792 C-94.85719061 225.93359564 -89.44161282 211.57564026 -84.02905273 197.21655273 C-83.47342835 195.74246254 -82.91780498 194.26837196 -82.36218262 192.79428101 C-80.1113852 186.82291275 -77.86045637 180.85159404 -75.60931396 174.88035583 C-71.19712417 163.17684978 -66.78627139 151.47284041 -62.37631226 139.76849365 C-61.83656858 138.33597804 -61.29682452 136.90346258 -60.75708008 135.47094727 C-60.49028631 134.76285667 -60.22349255 134.05476608 -59.94861412 133.3252182 C-58.07298144 128.34728166 -56.1968565 123.36953081 -54.32055664 118.3918457 C-53.24678317 115.54306634 -52.17305528 112.69426979 -51.09936523 109.84545898 C-50.83338154 109.13973 -50.56739784 108.43400101 -50.29335403 107.70688629 C-46.58870336 97.87676464 -42.88910389 88.04475391 -39.1930542 78.21139526 C-37.12137643 72.69975513 -35.04833504 67.18862816 -32.97500229 61.6776104 C-31.56739735 57.93581093 -30.1605492 54.19373097 -28.75561523 50.45092773 C-18.84767602 24.05835325 -18.84767602 24.05835325 -13.97436523 11.62670898 C-13.66336884 10.81809921 -13.35237244 10.00948944 -13.0319519 9.17637634 C-10.01151609 1.57002788 -8.13842475 -0.05076826 0 0 Z M29.47094727 126.40405273 C26.6726816 133.19270643 24.16703311 140.03140646 21.86157227 147.00170898 C21.5331987 147.98660812 21.20482513 148.97150726 20.86650085 149.98625183 C19.81449098 153.14520427 18.76721875 156.30569542 17.72094727 159.46655273 C17.36533722 160.53909302 17.00972717 161.6116333 16.64334106 162.7166748 C14.87875013 168.03920864 13.11747001 173.36281939 11.36010742 178.68774414 C9.99676389 182.81761518 8.62473334 186.94444484 7.24490356 191.0688324 C6.29080057 193.92773731 5.35000571 196.79099624 4.40844727 199.65405273 C4.08070313 200.62608643 3.75295898 201.59812012 3.4152832 202.59960938 C3.13330078 203.46835693 2.85131836 204.33710449 2.56079102 205.23217773 C2.32223389 205.95308594 2.08367676 206.67399414 1.83789062 207.41674805 C1.40963188 209.73612675 1.6966715 211.19183626 2.47094727 213.40405273 C3.50513872 214.66122879 3.50513872 214.66122879 5.75514221 214.52430725 C6.76552048 214.52208664 7.77589874 214.51986603 8.81689453 214.51757812 C9.95800186 214.51750259 11.09910919 214.51742706 12.27479553 214.51734924 C14.13726173 214.50960732 14.13726173 214.50960732 16.03735352 214.50170898 C17.30111313 214.50029404 18.56487274 214.49887909 19.8669281 214.49742126 C23.23219616 214.49275856 26.59739716 214.48376754 29.96264648 214.47271729 C33.39444396 214.46250119 36.82624835 214.45792322 40.25805664 214.45288086 C46.99570551 214.44182654 53.73332251 214.42506983 60.47094727 214.40405273 C62.25264179 210.70247513 62.71594836 208.76426766 61.40380859 204.86206055 C61.11846252 203.98684753 60.83311646 203.11163452 60.53912354 202.2098999 C60.21369568 201.26850159 59.88826782 200.32710327 59.55297852 199.35717773 C59.22440857 198.36470032 58.89583862 197.3722229 58.55731201 196.34967041 C57.48149353 193.11239532 56.38279549 189.8834049 55.28344727 186.65405273 C54.54166764 184.43774527 53.80135757 182.22094542 53.0625 180.00366211 C51.58022961 175.56324134 50.08908925 171.12596209 48.59008789 166.69116211 C46.69761561 161.08782631 44.83457717 155.47531354 42.98657227 149.85717773 C42.00273986 146.87262363 41.01821414 143.88829863 40.03344727 140.90405273 C39.80315826 140.20542114 39.57286926 139.50678955 39.33560181 138.7869873 C38.69773493 136.85619373 38.05519184 134.92694682 37.41235352 132.99780273 C37.05858643 131.93239258 36.70481934 130.86698242 36.34033203 129.76928711 C35.68660921 127.47980131 35.68660921 127.47980131 34.47094727 126.40405273 C32.80477611 126.36341441 31.13706632 126.36133173 29.47094727 126.40405273 Z " fill="#7F21FE" transform="translate(138.529052734375,8.595947265625)"/>
<path d="M0 0 C0.77590485 -0.00525696 1.55180969 -0.01051392 2.35122681 -0.01593018 C4.91794927 -0.02914225 7.48405239 -0.02038807 10.05078125 -0.01025391 C11.83292765 -0.0122743 13.61507324 -0.01518545 15.3972168 -0.01895142 C19.1330553 -0.0233764 22.86867868 -0.01693817 26.60449219 -0.00292969 C31.39657209 0.01416236 36.18814795 0.0043221 40.98020935 -0.01364708 C44.66047981 -0.02448025 48.3406305 -0.02104074 52.02090454 -0.0132637 C53.78797464 -0.0112604 55.55505557 -0.01372553 57.32211304 -0.02070236 C59.79055649 -0.02830926 62.2581802 -0.01672393 64.7265625 0 C65.45912262 -0.00607269 66.19168274 -0.01214539 66.94644165 -0.0184021 C71.82234563 0.04289423 71.82234563 0.04289423 74.19590759 1.5579834 C75.73473492 3.97054603 76.69277196 6.36972772 77.67797852 9.05957031 C78.33413902 10.83150505 78.33413902 10.83150505 79.0035553 12.63923645 C79.47903082 13.94874571 79.95440489 15.25829181 80.4296875 16.56787109 C80.93573454 17.9427682 81.44258514 19.31736977 81.95018005 20.69169617 C83.04225018 23.65284033 84.12934799 26.61574436 85.21264648 29.58010864 C86.94612865 34.32268833 88.69138116 39.06087702 90.43945312 43.7980957 C90.88269456 44.99932147 90.88269456 44.99932147 91.33489037 46.22481441 C91.93737911 47.85748759 92.53991525 49.49014328 93.14249802 51.12278175 C94.06184038 53.61460228 94.98017777 56.1067914 95.89834595 58.5990448 C101.71093546 74.3696683 107.62195556 90.10245528 113.56084442 105.82587814 C114.63974814 108.68275164 115.71780736 111.53994351 116.79587173 114.39713383 C119.23542507 120.86264529 121.67617991 127.32770232 124.11767578 133.79248047 C129.24809055 147.37764454 134.3706287 160.96577921 139.49188614 174.55439758 C140.03072295 175.98412302 140.56957943 177.41384105 141.10845566 178.84355164 C147.50424866 195.81249638 153.89155169 212.78460056 160.26171875 229.76318359 C160.54831863 230.52706264 160.83491852 231.2909417 161.13020325 232.0779686 C164.272981 240.45518709 167.41319839 248.83335945 170.54980469 257.21289062 C171.65678632 260.16980208 172.76389641 263.12666541 173.87109375 266.08349609 C174.14212418 266.80736637 174.4131546 267.53123665 174.69239807 268.27704239 C178.42518744 278.24436014 182.18158081 288.20246535 185.95721626 298.1536274 C187.45331016 302.09916924 188.94528814 306.04626964 190.43718624 309.99339962 C191.59857763 313.06470448 192.76403369 316.13437519 193.93496704 319.20205688 C195.20350633 322.52571619 196.46218931 325.85294974 197.71875 329.18115234 C198.09228607 330.15144379 198.46582214 331.12173523 198.85067749 332.12142944 C199.3522789 333.4584642 199.3522789 333.4584642 199.86401367 334.82250977 C200.30145149 335.97235603 200.30145149 335.97235603 200.74772644 337.14543152 C201.44731405 339.6943541 201.60922531 341.75713301 201.36328125 344.38818359 C198.76586836 346.98559648 196.97488797 346.63283209 193.43624878 346.65924072 C192.606586 346.65519226 191.77692322 346.6511438 190.92211914 346.64697266 C190.04882462 346.65047729 189.17553009 346.65398193 188.27577209 346.65759277 C185.37908051 346.66641989 182.48263172 346.66055698 179.5859375 346.65380859 C177.57816013 346.65515508 175.57038307 346.65709548 173.56260681 346.65960693 C169.35005598 346.66255963 165.13758984 346.65825634 160.92504883 346.64892578 C155.51985706 346.63753851 150.11486405 346.64408524 144.7096796 346.65607071 C140.56190997 346.66329163 136.41418759 346.66100017 132.26641655 346.65581512 C130.27326878 346.65447889 128.28011675 346.65612542 126.28697395 346.66077423 C123.50247941 346.66584243 120.71830829 346.6581247 117.93383789 346.64697266 C117.10619934 346.65102112 116.27856079 346.65506958 115.42584229 346.65924072 C111.5495374 346.63041966 109.66389177 346.5885906 106.36328125 344.38818359 C105.28793335 341.99046326 105.28793335 341.99046326 104.29443359 338.94458008 C103.91749359 337.80677597 103.54055359 336.66897186 103.15219116 335.49668884 C102.75521027 334.26334305 102.35822937 333.02999725 101.94921875 331.75927734 C101.53092122 330.48624707 101.11160577 329.21355086 100.6913147 327.94117737 C99.58774372 324.59241416 98.49632388 321.23982018 97.40789795 317.8861084 C95.66177633 312.51325509 93.89678511 307.14656703 92.13280106 301.77955818 C91.5172257 299.90108223 90.90682782 298.02091221 90.29647827 296.14073181 C89.92584259 295.00607986 89.55520691 293.87142792 89.17333984 292.70239258 C88.68394424 291.19587379 88.68394424 291.19587379 88.18466187 289.65892029 C87.56768449 287.45111479 87.56768449 287.45111479 86.36328125 286.38818359 C84.93381654 286.2926396 83.4996546 286.26629921 82.06700134 286.26792908 C81.14006973 286.26655441 80.21313812 286.26517975 79.25811768 286.26376343 C78.23313171 286.2673587 77.20814575 286.27095398 76.15209961 286.2746582 C75.07906082 286.27451218 74.00602203 286.27436615 72.90046692 286.2742157 C69.33466609 286.27491536 65.76891676 286.28271021 62.203125 286.29052734 C59.73832732 286.29239134 57.27352926 286.29381533 54.80873108 286.29481506 C48.3067422 286.29864172 41.8047755 286.30847327 35.30279541 286.31951904 C28.67387308 286.33026612 22.04494432 286.334312 15.41601562 286.33935547 C2.39842801 286.35009541 -10.61914419 286.36698263 -23.63671875 286.38818359 C-23.83372344 287.11932121 -24.03072813 287.85045883 -24.23370266 288.60375214 C-24.49692853 289.57574806 -24.7601544 290.54774399 -25.03135681 291.54919434 C-25.2902365 292.50720695 -25.54911619 293.46521957 -25.81584072 294.45226288 C-27.12922513 299.14966291 -28.62947499 303.78258086 -30.140625 308.41943359 C-30.46457748 309.41777222 -30.78852997 310.41611084 -31.12229919 311.44470215 C-31.8007929 313.53242544 -32.48066257 315.61970201 -33.16186523 317.70654297 C-34.20503141 320.90601147 -35.24037636 324.10794502 -36.27539062 327.31005859 C-36.93832969 329.34667076 -37.6017247 331.38313457 -38.265625 333.41943359 C-38.57399796 334.37563599 -38.88237091 335.33183838 -39.2000885 336.3170166 C-39.49056564 337.20223999 -39.78104279 338.08746338 -40.08032227 338.99951172 C-40.33330582 339.77685669 -40.58628937 340.55420166 -40.84693909 341.35510254 C-41.63671875 343.38818359 -41.63671875 343.38818359 -43.63671875 346.38818359 C-46.58570778 346.69020045 -49.32545203 346.79745812 -52.27734375 346.77636719 C-53.17175171 346.78162415 -54.06615967 346.7868811 -54.9876709 346.79229736 C-57.95419606 346.80553794 -60.92018781 346.79674495 -63.88671875 346.78662109 C-65.94173282 346.78864066 -67.9967462 346.79155112 -70.05175781 346.7953186 C-74.36269949 346.79974746 -78.67345493 346.79329282 -82.984375 346.77929688 C-88.51978376 346.76220474 -94.05475619 346.77204292 -99.59014893 346.79001427 C-103.83483183 346.80083692 -108.0794107 346.79741274 -112.32409668 346.78963089 C-114.36551973 346.78762468 -116.40695211 346.79010284 -118.44836426 346.79706955 C-121.29786321 346.80465908 -124.1466482 346.79311504 -126.99609375 346.77636719 C-127.84602905 346.78243988 -128.69596436 346.78851257 -129.57165527 346.79476929 C-131.91699219 346.76913452 -131.91699219 346.76913452 -135.63671875 346.38818359 C-137.63671875 343.38818359 -137.63671875 343.38818359 -137.1171875 339.64208984 C-135.53724817 333.4087844 -133.13472123 327.45490882 -130.79214478 321.47763062 C-129.2993994 317.66672804 -127.8296815 313.84690918 -126.35546875 310.02880859 C-126.04563553 309.22819504 -125.73580231 308.42758148 -125.4165802 307.60270691 C-122.19994837 299.28301046 -119.07105015 290.93130754 -115.94921875 282.57568359 C-114.68170822 279.18739356 -113.41328334 275.7994464 -112.14453125 272.41162109 C-111.80185211 271.49655792 -111.45917297 270.58149475 -111.10610962 269.63870239 C-106.14232488 256.39105179 -101.14926238 243.15440151 -96.15945053 229.91653824 C-95.32083837 227.69171551 -94.48226762 225.46687717 -93.64370728 223.24203491 C-91.36054109 217.18445767 -89.07728717 211.12691351 -86.7938385 205.06944275 C-81.5461266 191.14845084 -76.30015555 177.22680331 -71.05458069 163.30500603 C-69.17147768 158.30728014 -67.28817232 153.30963053 -65.40478516 148.31201172 C-59.61629389 132.95184856 -53.82996896 117.59087303 -48.0467968 102.22870636 C-45.01513211 94.17571207 -41.98223137 86.12318807 -38.94506836 78.07226562 C-38.68017137 77.37006393 -38.41527437 76.66786224 -38.1423502 75.94438171 C-37.08758286 73.14846731 -36.03277495 70.35256825 -34.97773933 67.55675507 C-31.97216692 59.59178985 -28.97292526 51.62452239 -25.98689365 43.65220928 C-23.97679226 38.28604989 -21.95926699 32.92270899 -19.93893433 27.56039429 C-19.12085456 25.38458768 -18.3056274 23.2077061 -17.49343872 21.0296936 C-16.39363506 18.08124627 -15.28402894 15.13667757 -14.171875 12.19287109 C-13.85440308 11.33399796 -13.53693115 10.47512482 -13.20983887 9.59022522 C-12.91250854 8.80924973 -12.61517822 8.02827423 -12.30883789 7.22363281 C-12.05638809 6.55016815 -11.80393829 5.87670349 -11.5438385 5.18283081 C-8.86490062 -0.11718433 -5.56654347 -0.04614489 0 0 Z M30.36328125 126.38818359 C27.78958384 129.77034557 26.5059787 133.46344846 25.17431641 137.46923828 C24.77024567 138.67529724 24.36617493 139.8813562 23.94985962 141.1239624 C23.51714389 142.43592508 23.08464435 143.74795907 22.65234375 145.06005859 C22.19822375 146.42480854 21.74365626 147.78940965 21.28866577 149.15386963 C20.33520543 152.01737538 19.38577849 154.88217543 18.43945312 157.74804688 C17.24309215 161.37074505 16.03902082 164.99081762 14.83223343 168.61005402 C10.10345675 182.79757626 5.3781616 196.97816559 1.36328125 211.38818359 C3.11251339 213.61616798 3.99005383 214.33171213 6.83656311 214.7624054 C8.30977272 214.76146126 8.30977272 214.76146126 9.81274414 214.76049805 C11.48446434 214.76984123 11.48446434 214.76984123 13.18995667 214.77937317 C14.99471718 214.76555855 14.99471718 214.76555855 16.8359375 214.75146484 C18.68692299 214.7522126 18.68692299 214.7522126 20.57530212 214.75297546 C23.85443152 214.75003315 27.13312843 214.73299567 30.41217041 214.71075439 C32.42532947 214.70068585 34.43823743 214.70037304 36.45141602 214.70385742 C40.30887236 214.71025217 44.16600387 214.70237047 48.0234375 214.68896484 C49.83123436 214.69033195 49.83123436 214.69033195 51.67555237 214.69172668 C53.34254433 214.67742867 53.34254433 214.67742867 55.04321289 214.6628418 C56.02455704 214.65823441 57.00590118 214.65362701 58.01698303 214.64888 C60.55358712 214.61434183 60.55358712 214.61434183 62.36328125 212.38818359 C62.01542278 206.30016053 60.00265965 200.72041984 58.08203125 194.97021484 C57.75228302 193.96694153 57.42253479 192.96366821 57.08279419 191.92999268 C56.01507584 188.68506265 54.93935241 185.44285222 53.86328125 182.20068359 C52.7641951 178.87084402 51.66686258 175.54043024 50.56973267 172.20994568 C49.84529288 170.01112389 49.12017807 167.81252438 48.39437866 165.614151 C46.3513713 159.4194808 44.33585883 153.21748503 42.37109375 146.99755859 C42.15922424 146.32838913 41.94735474 145.65921967 41.72906494 144.96977234 C40.78775258 141.99344779 39.85312515 139.01525321 38.92773438 136.03393555 C38.60998047 135.02806396 38.29222656 134.02219238 37.96484375 132.98583984 C37.70010254 132.13513916 37.43536133 131.28443848 37.16259766 130.40795898 C36.44580972 128.20585011 36.44580972 128.20585011 34.36328125 126.38818359 C33.04328125 126.38818359 31.72328125 126.38818359 30.36328125 126.38818359 Z " fill="#7F21FE" transform="translate(923.63671875,8.61181640625)"/>
<path d="M0 0 C0.7685582 -0.00988449 1.53711639 -0.01976898 2.32896423 -0.029953 C35.09326824 -0.36394834 64.79686308 4.11564454 93.84765625 20.23828125 C95.0687492 20.89371606 96.29010317 21.54866481 97.51171875 22.203125 C116.08357826 32.31497281 140.79104375 49.87692596 150.8828125 69.22265625 C150.84765625 71.23828125 150.84765625 71.23828125 148.859375 73.64453125 C145.55275854 76.49225282 142.17185982 79.15061882 138.66015625 81.73828125 C137.9638208 82.25600098 137.26748535 82.7737207 136.55004883 83.30712891 C130.67200832 87.66350958 124.74299423 91.9493111 118.80126953 96.21826172 C112.19599823 100.967624 105.65054039 105.79583643 99.12768555 110.65771484 C91.21065849 116.52880691 91.21065849 116.52880691 87.84765625 118.23828125 C83.64150998 117.50220565 82.00794949 115.31632634 79.46484375 112.0703125 C66.04422013 96.86675579 44.01056826 86.05702623 23.84765625 84.23828125 C-4.76592046 82.47413592 -29.82790249 87.98155526 -51.84765625 107.21118164 C-69.32872852 122.97653937 -82.93104579 146.41995009 -84.33251953 170.30957031 C-85.51271318 200.08090684 -79.07919726 226.1344011 -58.71484375 248.61328125 C-46.89955889 261.16612755 -32.54987819 270.00375998 -16.15234375 275.23828125 C-15.15847656 275.55796875 -14.16460938 275.87765625 -13.140625 276.20703125 C12.23596077 282.94914998 38.75009243 277.58311735 61.20703125 264.87890625 C67.14600276 261.18901271 72.32665642 256.85140035 77.1875 251.8359375 C77.76322754 251.24304932 78.33895508 250.65016113 78.93212891 250.03930664 C80.06631335 248.8572102 81.18765808 247.66263128 82.29443359 246.45483398 C84.48353424 244.15257431 86.19185209 242.42505428 89.2890625 241.54296875 C93.14600217 242.59111419 95.90538567 244.90961733 98.97265625 247.36328125 C100.40540828 248.47374311 101.83903871 249.58307235 103.2734375 250.69140625 C104.02189941 251.27470703 104.77036133 251.85800781 105.54150391 252.45898438 C109.36587254 255.40965118 113.26411976 258.25833329 117.16015625 261.11328125 C118.75402016 262.28630357 120.34776898 263.45948229 121.94140625 264.6328125 C125.31398487 267.11268965 128.68959301 269.58839298 132.06640625 272.0625 C132.91936279 272.68850098 133.77231934 273.31450195 134.65112305 273.95947266 C136.27637915 275.1522022 137.90277315 276.3433834 139.53051758 277.53271484 C141.64725877 279.08703465 143.74797209 280.66104638 145.84765625 282.23828125 C146.46560059 282.67897949 147.08354492 283.11967773 147.72021484 283.57373047 C150.24427113 285.46917057 151.70481792 286.62407642 152.43359375 289.7578125 C148.08596017 308.16279466 118.40496737 327.33380007 103.22265625 336.80078125 C65.02243818 359.87839713 18.19196132 369.45279692 -25.84765625 359.625 C-59.78714746 351.09879961 -87.93665394 335.25148874 -113.15234375 311.23828125 C-113.85875 310.58472656 -114.56515625 309.93117188 -115.29296875 309.2578125 C-141.84360673 283.94836288 -157.63148667 247.75777333 -164.15234375 212.23828125 C-164.34932861 211.16779541 -164.34932861 211.16779541 -164.55029297 210.07568359 C-172.65979279 163.18161942 -160.05121337 113.17922466 -132.92578125 74.48876953 C-126.67486192 65.7954547 -119.53756069 57.97215651 -112.15234375 50.23828125 C-111.55035156 49.5834375 -110.94835937 48.92859375 -110.328125 48.25390625 C-100.86788767 38.24559472 -88.96288137 30.21652948 -77.15234375 23.23828125 C-76.52021973 22.86461426 -75.8880957 22.49094727 -75.23681641 22.10595703 C-52.83952748 9.09588952 -26.04681832 0.27494137 0 0 Z " fill="#7F21FE" transform="translate(633.15234375,0.76171875)"/>
<path d="M0 0 C0.77512939 0.00404846 1.55025879 0.00809692 2.34887695 0.01226807 C3.16525635 0.00876343 3.98163574 0.00525879 4.82275391 0.00164795 C7.52946399 -0.00717635 10.23591407 -0.0013178 12.94262695 0.00543213 C14.81827851 0.00408568 16.69392972 0.00214532 18.56958008 -0.00036621 C22.50385861 -0.00331842 26.43804644 0.00098327 30.37231445 0.01031494 C35.4233726 0.02170953 40.47421822 0.01515057 45.52526855 0.00317001 C49.39934907 -0.00404598 53.27337893 -0.00176186 57.14746094 0.0034256 C59.01025416 0.00476282 60.87305193 0.00311186 62.73583984 -0.00153351 C65.33614337 -0.00659448 67.9360994 0.00110532 70.53637695 0.01226807 C71.31150635 0.0082196 72.08663574 0.00417114 72.88525391 0 C78.21409851 0.04252869 78.21409851 0.04252869 80.44262695 2.27105713 C80.69332528 4.70365477 80.69332528 4.70365477 80.69430923 7.83708954 C80.69952473 9.02767613 80.70474022 10.21826272 80.71011376 11.44492769 C80.70565232 12.76455114 80.70119088 14.08417459 80.69659424 15.44378662 C80.69889666 16.85064592 80.7020717 18.25750401 80.70604873 19.66435957 C80.71443548 23.54394874 80.71025397 27.42344014 80.70407629 31.30302978 C80.69956858 35.48167459 80.70652717 39.66030207 80.71203613 43.83894348 C80.72094983 52.03028931 80.71899935 60.22159858 80.71321085 68.41294587 C80.70870212 75.06763327 80.70807803 81.72231041 80.71025848 88.3769989 C80.71056495 89.32254866 80.71087142 90.26809842 80.71118717 91.2423012 C80.71182659 93.16290367 80.71247502 95.08350614 80.71313235 97.00410861 C80.71884143 115.03217216 80.7122687 133.06021539 80.70153162 151.08827561 C80.69259558 166.57190176 80.69414746 182.05549793 80.70336914 197.53912354 C80.71406158 215.50074842 80.71829206 233.46235548 80.71214461 251.4239831 C80.71150749 253.33769385 80.71087874 255.2514046 80.71025848 257.16511536 C80.70979566 258.57765066 80.70979566 258.57765066 80.70932348 260.01872203 C80.70759345 266.66879164 80.71051825 273.31884998 80.71521759 279.96891785 C80.72081504 288.06828617 80.719334 296.16761572 80.7086561 304.26697958 C80.70338402 308.40285718 80.70136863 312.53867001 80.70795441 316.6745472 C80.71388439 320.45564839 80.71068802 324.23662436 80.6999993 328.01771408 C80.69668281 330.044205 80.70326254 332.07070451 80.71011376 334.09718657 C80.70229052 335.88306645 80.70229052 335.88306645 80.69430923 337.70502472 C80.69398453 338.73905819 80.69365983 339.77309167 80.69332528 340.83845949 C80.44262695 343.27105713 80.44262695 343.27105713 78.44262695 345.27105713 C75.77300209 345.46953321 73.20711403 345.54379532 70.53637695 345.52984619 C69.31180786 345.53510315 69.31180786 345.53510315 68.0625 345.54046631 C65.35578992 345.5492906 62.64933983 345.54343205 59.94262695 345.53668213 C58.0669754 345.53802858 56.19132418 345.53996894 54.31567383 345.54248047 C50.38139529 345.54543268 46.44720746 345.54113099 42.51293945 345.53179932 C37.46188131 345.52040473 32.41103569 345.52696368 27.35998535 345.53894424 C23.48590484 345.54616024 19.61187498 345.54387612 15.73779297 345.53868866 C13.87499975 345.53735144 12.01220197 345.5390024 10.14941406 345.54364777 C7.54911053 345.54870873 4.9491545 345.54100893 2.34887695 345.52984619 C1.57374756 345.53389465 0.79861816 345.53794312 0 345.54211426 C-5.32884461 345.49958557 -5.32884461 345.49958557 -7.55737305 343.27105713 C-7.80807137 340.83845949 -7.80807137 340.83845949 -7.80905533 337.70502472 C-7.81427082 336.51443813 -7.81948632 335.32385154 -7.82485986 334.09718657 C-7.82039841 332.77756312 -7.81593697 331.45793967 -7.81134033 330.09832764 C-7.81364275 328.69146834 -7.8168178 327.28461025 -7.82079482 325.87775469 C-7.82918157 321.99816551 -7.82500006 318.11867411 -7.81882238 314.23908448 C-7.81431468 310.06043967 -7.82127326 305.88181219 -7.82678223 301.70317078 C-7.83569592 293.51182495 -7.83374545 285.32051568 -7.82795694 277.12916839 C-7.82344821 270.47448098 -7.82282412 263.81980385 -7.82500458 257.16511536 C-7.82531104 256.2195656 -7.82561751 255.27401584 -7.82593326 254.29981306 C-7.82657269 252.37921059 -7.82722111 250.45860812 -7.82787845 248.53800565 C-7.83358753 230.5099421 -7.82701479 212.48189886 -7.81627771 194.45383865 C-7.80734168 178.9702125 -7.80889356 163.48661633 -7.81811523 148.00299072 C-7.82880767 130.04136584 -7.83303815 112.07975878 -7.82689071 94.11813116 C-7.82625358 92.20442041 -7.82562484 90.29070966 -7.82500458 88.3769989 C-7.82469603 87.4353087 -7.82438748 86.4936185 -7.82406957 85.52339223 C-7.82233955 78.87332262 -7.82526434 72.22326428 -7.82996368 65.57319641 C-7.83556114 57.47382808 -7.8340801 49.37449854 -7.8234022 41.27513468 C-7.81813011 37.13925708 -7.81611472 33.00344425 -7.8227005 28.86756706 C-7.82863048 25.08646587 -7.82543411 21.3054899 -7.8147454 17.52440017 C-7.81142891 15.49790926 -7.81800863 13.47140974 -7.82485986 11.44492769 C-7.81964436 10.2543411 -7.81442887 9.06375451 -7.80905533 7.83708954 C-7.80873062 6.80305606 -7.80840592 5.76902259 -7.80807137 4.70365477 C-7.293277 -0.29154238 -4.32188523 0.0344923 0 0 Z " fill="#7F21FE" transform="translate(363.557373046875,8.72894287109375)"/>
</svg>
